<?xml version="1.0" encoding="UTF-8"?>
<svg id="layer_1" xmlns="http://www.w3.org/2000/svg" viewBox="0 0 1193.71 787.18">
  <defs>
    <style>
      .cls-1 {
        fill: white;
      }
    </style>
  </defs>
  <path class="cls-1" d="m49.58,787.18h473.95c38.49,0,62.26-42,42.44-75l-49.53-82.48c-8.95-14.9-25.06-24.02-42.44-24.02h-92.56c-38.15,0-61.96-41.33-42.84-74.34l67.52-116.5c18.98-32.74,66.18-32.95,85.45-.38l206.08,348.41c8.91,15.06,25.11,24.3,42.61,24.3h105.47c38.23,0,62.04-41.49,42.74-74.5L489.37,29.98c-19.14-32.74-66.47-32.69-85.54.1L6.79,712.78c-19.2,33.01,4.62,74.4,42.8,74.4Z"/>
  <path class="cls-1" d="m700.3,21.23l-45.21,64.97c-11.02,15.84-11.83,36.63-2.09,53.28l364.68,623.19c8.88,15.18,25.15,24.5,42.73,24.5h83.72c38.25,0,62.06-41.53,42.72-74.54L783.66,24.48c-18.27-31.18-62.72-32.92-83.36-3.25Z"/>
</svg>